<svg width="80" height="100" viewBox="0 0 80 100" fill="none" xmlns="http://www.w3.org/2000/svg">
<path d="M78.5205 24.6735L53.6225 1.06122C52.7654 0.428571 51.9286 0 50.847 0H4.25517C1.90823 0 0.214355 1.91837 0.214355 4.04082V95.9592C0.214355 98.3061 2.13272 100 4.25517 100H75.745C78.0919 100 79.7858 98.3061 79.7858 95.9592V27.449C79.7858 26.3878 79.3776 25.5306 78.5205 24.6735ZM54.6838 12.9388L67.4593 25.102H54.6838V12.9388ZM71.9287 92.1225H8.09191V7.87755H46.6021V28.7347C46.6021 31.0816 48.5205 32.7755 50.6429 32.7755H71.9287V92.1225Z" fill="black"/>
</svg>
